<svg width="24" height="24" viewBox="0 0 24 24" fill="none" xmlns="http://www.w3.org/2000/svg">
<path d="M11.8542 4C13.455 4 14.9357 4.29761 16.2961 4.89284C17.6565 5.48807 18.732 6.29747 19.5225 7.32101C20.3131 8.34452 20.7083 9.46097 20.7083 10.6703C20.7083 11.8797 20.3131 12.9977 19.5225 14.0244C18.732 15.0511 17.6581 15.8621 16.301 16.4573C14.9439 17.0525 13.4616 17.3501 11.8542 17.3501C11.3469 17.3501 10.8231 17.3155 10.2829 17.2462C7.93763 18.802 6.68925 19.5893 6.53772 19.6082C6.46525 19.6334 6.39606 19.6302 6.33019 19.5988C6.30383 19.5799 6.28407 19.5547 6.27089 19.5232C6.25771 19.4917 6.25114 19.4633 6.25114 19.4381V19.4004C6.29068 19.1547 6.59041 18.1312 7.1504 16.3297C5.87892 15.7251 4.86932 14.9236 4.12159 13.9252C3.37386 12.9269 3 11.8419 3 10.6703C3 9.46097 3.39528 8.34452 4.18583 7.32101C4.97638 6.29747 6.05185 5.48807 7.41226 4.89284C8.77266 4.29761 10.2533 4 11.8542 4Z" fill="#1F1F1F"/>
</svg>
