<svg width="24" height="24" viewBox="0 0 24 24" fill="none" xmlns="http://www.w3.org/2000/svg">
<path d="M13.4 2H6C5.46957 2 4.96086 2.21071 4.58579 2.58579C4.21071 2.96086 4 3.46957 4 4V20C4 20.5304 4.21071 21.0391 4.58579 21.4142C4.96086 21.7893 5.46957 22 6 22H18C18.5304 22 19.0391 21.7893 19.4142 21.4142C19.7893 21.0391 20 20.5304 20 20V12.6" stroke="#FF8168" stroke-width="2" stroke-linecap="round" stroke-linejoin="round"/>
<path d="M2 6H6" stroke="#FF8168" stroke-width="2" stroke-linecap="round" stroke-linejoin="round"/>
<path d="M2 10H6" stroke="#FF8168" stroke-width="2" stroke-linecap="round" stroke-linejoin="round"/>
<path d="M2 14H6" stroke="#FF8168" stroke-width="2" stroke-linecap="round" stroke-linejoin="round"/>
<path d="M2 18H6" stroke="#FF8168" stroke-width="2" stroke-linecap="round" stroke-linejoin="round"/>
<path d="M21.378 5.6259C21.7763 5.22755 22.0001 4.68726 22.0001 4.1239C22.0001 3.56055 21.7763 3.02026 21.378 2.6219C20.9796 2.22355 20.4393 1.99976 19.876 1.99976C19.3126 1.99976 18.7723 2.22355 18.374 2.6219L13.364 7.6339C13.1262 7.87153 12.9522 8.16524 12.858 8.4879L12.021 11.3579C11.9959 11.444 11.9944 11.5352 12.0166 11.622C12.0389 11.7088 12.084 11.7881 12.1474 11.8515C12.2108 11.9148 12.2901 11.96 12.3769 11.9823C12.4637 12.0045 12.5549 12.003 12.641 11.9779L15.511 11.1409C15.8336 11.0467 16.1274 10.8727 16.365 10.6349L21.378 5.6259Z" stroke="#FF8168" stroke-width="2" stroke-linecap="round" stroke-linejoin="round"/>
</svg>
